{
  "accessors": [
    {
      "bufferView": 2,
      "componentType": 5126,
      "count": 16359,
      "max": [
        5.6053638458251953,
        5.2053365707397461,
        5.3803567886352539
      ],
      "min": [
        -5.5140542984008789,
        -6.3638005256652832,
        -0.040441699326038361
      ],
      "type": "VEC3"
    },
    {
      "bufferView": 2,
      "byteOffset": 196308,
      "componentType": 5126,
      "count": 16359,
      "max": [
        1,
        1,
        1
      ],
      "min": [
        -1,
        -1,
        -1
      ],
      "type": "VEC3"
    },
    {
      "bufferView": 1,
      "componentType": 5126,
      "count": 16359,
      "max": [
        1,
        1
      ],
      "min": [
        0,
        0
      ],
      "type": "VEC2"
    },
    {
      "bufferView": 1,
      "byteOffset": 130872,
      "componentType": 5126,
      "count": 16359,
      "max": [
        1.0359343290328979,
        1.6890714168548584
      ],
      "min": [
        -0.42256549000740051,
        -0.68907147645950317
      ],
      "type": "VEC2"
    },
    {
      "bufferView": 0,
      "componentType": 5125,
      "count": 54147,
      "max": [
        16358
      ],
      "min": [
        0
      ],
      "type": "SCALAR"
    },
    {
      "bufferView": 2,
      "byteOffset": 392616,
      "componentType": 5126,
      "count": 15711,
      "max": [
        7.0392241477966309,
        11.716094017028809,
        5.0249958038330078
      ],
      "min": [
        -7.0289654731750488,
        -9.1097612380981445,
        -0.16533932089805603
      ],
      "type": "VEC3"
    },
    {
      "bufferView": 2,
      "byteOffset": 581148,
      "componentType": 5126,
      "count": 15711,
      "max": [
        1,
        1,
        1
      ],
      "min": [
        -1,
        -1,
        -1
      ],
      "type": "VEC3"
    },
    {
      "bufferView": 1,
      "byteOffset": 261744,
      "componentType": 5126,
      "count": 15711,
      "max": [
        1,
        1
      ],
      "min": [
        0,
        0
      ],
      "type": "VEC2"
    },
    {
      "bufferView": 0,
      "byteOffset": 216588,
      "componentType": 5125,
      "count": 42606,
      "max": [
        15710
      ],
      "min": [
        0
      ],
      "type": "SCALAR"
    },
    {
      "bufferView": 2,
      "byteOffset": 769680,
      "componentType": 5126,
      "count": 14834,
      "max": [
        4.4429121017456055,
        2.8862767219543457,
        0.12290287017822266
      ],
      "min": [
        -4.5660009384155273,
        -3.9446945190429688,
        -5.2776422500610352
      ],
      "type": "VEC3"
    },
    {
      "bufferView": 2,
      "byteOffset": 947688,
      "componentType": 5126,
      "count": 14834,
      "max": [
        1,
        1,
        1
      ],
      "min": [
        -1,
        -1,
        -1
      ],
      "type": "VEC3"
    },
    {
      "bufferView": 1,
      "byteOffset": 387432,
      "componentType": 5126,
      "count": 14834,
      "max": [
        0.99999994039535522,
        1
      ],
      "min": [
        0,
        0
      ],
      "type": "VEC2"
    },
    {
      "bufferView": 1,
      "byteOffset": 506104,
      "componentType": 5126,
      "count": 14834,
      "max": [
        1.3452637195587158,
        0.77307724952697754
      ],
      "min": [
        -0.3452637791633606,
        -0.19837081432342529
      ],
      "type": "VEC2"
    },
    {
      "bufferView": 0,
      "byteOffset": 387012,
      "componentType": 5125,
      "count": 49869,
      "max": [
        14833
      ],
      "min": [
        0
      ],
      "type": "SCALAR"
    }
  ],
  "asset": {
    "extras": {
      "author": "yanix (https://sketchfab.com/yanix)",
      "license": "CC-BY-4.0 (http://creativecommons.org/licenses/by/4.0/)",
      "source": "https://sketchfab.com/3d-models/egyptian-temples-ab516f7795684d6683188680dcb100ee",
      "title": "Egyptian Temples"
    },
    "generator": "Sketchfab-9.72.0",
    "version": "2.0"
  },
  "bufferViews": [
    {
      "buffer": 0,
      "byteLength": 586488,
      "byteOffset": 0,
      "name": "floatBufferViews",
      "target": 34963
    },
    {
      "buffer": 0,
      "byteLength": 624776,
      "byteOffset": 586488,
      "byteStride": 8,
      "name": "floatBufferViews",
      "target": 34962
    },
    {
      "buffer": 0,
      "byteLength": 1125696,
      "byteOffset": 1211264,
      "byteStride": 12,
      "name": "floatBufferViews",
      "target": 34962
    }
  ],
  "buffers": [
    {
      "byteLength": 2336960,
      "uri": "scene.bin"
    }
  ],
  "images": [
    {
      "uri": "textures/egypt_temple_1.001_baseColor.png"
    },
    {
      "uri": "textures/egypt_temple_1_baseColor.png"
    },
    {
      "uri": "textures/egypt_temple_2_baseColor.png"
    }
  ],
  "materials": [
    {
      "doubleSided": true,
      "name": "egypt_temple_1.001",
      "pbrMetallicRoughness": {
        "baseColorFactor": [
          1,
          1,
          1,
          1
        ],
        "baseColorTexture": {
          "index": 0,
          "texCoord": 0
        },
        "metallicFactor": 0,
        "roughnessFactor": 1
      }
    },
    {
      "doubleSided": true,
      "name": "egypt_temple_1",
      "pbrMetallicRoughness": {
        "baseColorFactor": [
          1,
          1,
          1,
          1
        ],
        "baseColorTexture": {
          "index": 1,
          "texCoord": 0
        },
        "metallicFactor": 0,
        "roughnessFactor": 0.82111456180001685
      }
    },
    {
      "doubleSided": true,
      "name": "egypt_temple_2",
      "pbrMetallicRoughness": {
        "baseColorFactor": [
          1,
          1,
          1,
          1
        ],
        "baseColorTexture": {
          "index": 2,
          "texCoord": 0
        },
        "metallicFactor": 0,
        "roughnessFactor": 1
      }
    }
  ],
  "meshes": [
    {
      "name": "Plane.001_egypt_temple_1.001_0",
      "primitives": [
        {
          "attributes": {
            "NORMAL": 1,
            "POSITION": 0,
            "TEXCOORD_0": 2,
            "TEXCOORD_1": 3
          },
          "indices": 4,
          "material": 0,
          "mode": 4
        }
      ]
    },
    {
      "name": "Cube.012_egypt_temple_1_0",
      "primitives": [
        {
          "attributes": {
            "NORMAL": 6,
            "POSITION": 5,
            "TEXCOORD_0": 7
          },
          "indices": 8,
          "material": 1,
          "mode": 4
        }
      ]
    },
    {
      "name": "Cube_egypt_temple_2_0",
      "primitives": [
        {
          "attributes": {
            "NORMAL": 10,
            "POSITION": 9,
            "TEXCOORD_0": 11,
            "TEXCOORD_1": 12
          },
          "indices": 13,
          "material": 2,
          "mode": 4
        }
      ]
    }
  ],
  "nodes": [
    {
      "children": [
        1
      ],
      "name": "RootNode (gltf orientation matrix)",
      "rotation": [
        -0.70710678118654746,
        -0,
        -0,
        0.70710678118654757
      ]
    },
    {
      "children": [
        2
      ],
      "name": "RootNode (model correction matrix)"
    },
    {
      "children": [
        3
      ],
      "matrix": [
        1,
        0,
        0,
        0,
        0,
        0,
        1,
        0,
        0,
        -1,
        0,
        0,
        0,
        0,
        0,
        1
      ],
      "name": "egypt_temples.fbx"
    },
    {
      "children": [
        4,
        6,
        8
      ],
      "name": "RootNode"
    },
    {
      "children": [
        5
      ],
      "matrix": [
        100,
        0,
        0,
        0,
        -0,
        -1.6292067939183141e-05,
        -99.999999999998678,
        0,
        0,
        99.999999999998678,
        -1.6292067939183141e-05,
        0,
        -1657.4117431640625,
        3.8314049243927002,
        -44.837493896484375,
        1
      ],
      "name": "Plane.001"
    },
    {
      "mesh": 0,
      "name": "Plane.001_egypt_temple_1.001_0"
    },
    {
      "children": [
        7
      ],
      "matrix": [
        100,
        0,
        0,
        0,
        0,
        -1.6292067939183141e-05,
        -99.999999999998678,
        0,
        0,
        99.999999999998678,
        -1.6292067939183141e-05,
        0,
        1755.1015625,
        13.326846122741699,
        325.99154663085938,
        1
      ],
      "name": "Cube.012"
    },
    {
      "mesh": 1,
      "name": "Cube.012_egypt_temple_1_0"
    },
    {
      "children": [
        9
      ],
      "matrix": [
        100,
        0,
        0,
        0,
        -0,
        -1.6292067939183141e-05,
        -99.999999999998678,
        0,
        0,
        99.999999999998678,
        -1.6292067939183141e-05,
        0,
        -0.94126427173614502,
        524.9276123046875,
        67.484443664550781,
        1
      ],
      "name": "Cube"
    },
    {
      "mesh": 2,
      "name": "Cube_egypt_temple_2_0"
    }
  ],
  "samplers": [
    {
      "magFilter": 9729,
      "minFilter": 9987,
      "wrapS": 10497,
      "wrapT": 10497
    }
  ],
  "scene": 0,
  "scenes": [
    {
      "name": "OSG_Scene",
      "nodes": [
        0
      ]
    }
  ],
  "textures": [
    {
      "sampler": 0,
      "source": 0
    },
    {
      "sampler": 0,
      "source": 1
    },
    {
      "sampler": 0,
      "source": 2
    }
  ]
}

