{
  "accessors": [
    {
      "bufferView": 2,
      "componentType": 5126,
      "count": 65532,
      "max": [
        9.2414846420288086,
        9.1865768432617188,
        10.862687110900879
      ],
      "min": [
        1.6258260011672974,
        2.047435998916626,
        -11.399957656860352
      ],
      "type": "VEC3"
    },
    {
      "bufferView": 2,
      "byteOffset": 786384,
      "componentType": 5126,
      "count": 65532,
      "max": [
        0.99999886751174927,
        0.9999963641166687,
        0.99951428174972534
      ],
      "min": [
        -0.99999958276748657,
        -0.99999845027923584,
        -0.9999803900718689
      ],
      "type": "VEC3"
    },
    {
      "bufferView": 3,
      "componentType": 5126,
      "count": 65532,
      "max": [
        0.99996268749237061,
        0.9999992847442627,
        0.99995523691177368,
        1
      ],
      "min": [
        -0.99999600648880005,
        -0.99777257442474365,
        -0.99999362230300903,
        -1
      ],
      "type": "VEC4"
    },
    {
      "bufferView": 1,
      "componentType": 5126,
      "count": 65532,
      "max": [
        0.97067201137542725,
        0.99970102310180664
      ],
      "min": [
        0.0050320001319050789,
        0.087825000286102295
      ],
      "type": "VEC2"
    },
    {
      "bufferView": 0,
      "componentType": 5125,
      "count": 328641,
      "max": [
        65531
      ],
      "min": [
        0
      ],
      "type": "SCALAR"
    },
    {
      "bufferView": 2,
      "byteOffset": 1572768,
      "componentType": 5126,
      "count": 65532,
      "max": [
        8.8963184356689453,
        9.0581521987915039,
        10.812229156494141
      ],
      "min": [
        1.6307410001754761,
        2.4671690464019775,
        -5.7500529289245605
      ],
      "type": "VEC3"
    },
    {
      "bufferView": 2,
      "byteOffset": 2359152,
      "componentType": 5126,
      "count": 65532,
      "max": [
        0.99999886751174927,
        0.96924567222595215,
        0.99961888790130615
      ],
      "min": [
        -0.9999997615814209,
        -0.99999982118606567,
        -0.99957436323165894
      ],
      "type": "VEC3"
    },
    {
      "bufferView": 3,
      "byteOffset": 1048512,
      "componentType": 5126,
      "count": 65532,
      "max": [
        0.99999815225601196,
        0.99999946355819702,
        0.99995523691177368,
        1
      ],
      "min": [
        -0.99998599290847778,
        -0.98063486814498901,
        -0.99961745738983154,
        -1
      ],
      "type": "VEC4"
    },
    {
      "bufferView": 1,
      "byteOffset": 524256,
      "componentType": 5126,
      "count": 65532,
      "max": [
        0.96791499853134155,
        0.99979400634765625
      ],
      "min": [
        0,
        0.0072470000013709068
      ],
      "type": "VEC2"
    },
    {
      "bufferView": 0,
      "byteOffset": 1314564,
      "componentType": 5125,
      "count": 321738,
      "max": [
        65531
      ],
      "min": [
        0
      ],
      "type": "SCALAR"
    },
    {
      "bufferView": 2,
      "byteOffset": 3145536,
      "componentType": 5126,
      "count": 65532,
      "max": [
        8.1308965682983398,
        9.0600528717041016,
        10.862687110900879
      ],
      "min": [
        1.6268939971923828,
        1.933040976524353,
        -7.3057060241699219
      ],
      "type": "VEC3"
    },
    {
      "bufferView": 2,
      "byteOffset": 3931920,
      "componentType": 5126,
      "count": 65532,
      "max": [
        0.99997228384017944,
        0.96491330862045288,
        0.99974781274795532
      ],
      "min": [
        -0.99999958276748657,
        -0.99999815225601196,
        -0.99967670440673828
      ],
      "type": "VEC3"
    },
    {
      "bufferView": 3,
      "byteOffset": 2097024,
      "componentType": 5126,
      "count": 65532,
      "max": [
        0.9999968409538269,
        0.99999493360519409,
        0.99998009204864502,
        1
      ],
      "min": [
        -0.99996697902679443,
        -0.9984123706817627,
        -0.99999123811721802,
        -1
      ],
      "type": "VEC4"
    },
    {
      "bufferView": 1,
      "byteOffset": 1048512,
      "componentType": 5126,
      "count": 65532,
      "max": [
        0.96810102462768555,
        0.99993598461151123
      ],
      "min": [
        0.0023940000683069229,
        0.0085530001670122147
      ],
      "type": "VEC2"
    },
    {
      "bufferView": 0,
      "byteOffset": 2601516,
      "componentType": 5125,
      "count": 322431,
      "max": [
        65531
      ],
      "min": [
        0
      ],
      "type": "SCALAR"
    },
    {
      "bufferView": 2,
      "byteOffset": 4718304,
      "componentType": 5126,
      "count": 65532,
      "max": [
        9.2401752471923828,
        9.1426887512207031,
        -0.45702999830245972
      ],
      "min": [
        1.679779052734375,
        -0.090752996504306793,
        -11.296564102172852
      ],
      "type": "VEC3"
    },
    {
      "bufferView": 2,
      "byteOffset": 5504688,
      "componentType": 5126,
      "count": 65532,
      "max": [
        0.99999833106994629,
        0.99548685550689697,
        0.99723535776138306
      ],
      "min": [
        -0.99999916553497314,
        -0.99999880790710449,
        -0.99999320507049561
      ],
      "type": "VEC3"
    },
    {
      "bufferView": 3,
      "byteOffset": 3145536,
      "componentType": 5126,
      "count": 65532,
      "max": [
        0.99777507781982422,
        0.99997854232788086,
        0.99999338388442993,
        1
      ],
      "min": [
        -0.9999966025352478,
        -0.99997293949127197,
        -0.99999916553497314,
        -1
      ],
      "type": "VEC4"
    },
    {
      "bufferView": 1,
      "byteOffset": 1572768,
      "componentType": 5126,
      "count": 65532,
      "max": [
        0.96965599060058594,
        0.94137698411941528
      ],
      "min": [
        0.0022239999379962683,
        0.00020700000459328294
      ],
      "type": "VEC2"
    },
    {
      "bufferView": 0,
      "byteOffset": 3891240,
      "componentType": 5125,
      "count": 325851,
      "max": [
        65531
      ],
      "min": [
        0
      ],
      "type": "SCALAR"
    },
    {
      "bufferView": 2,
      "byteOffset": 6291072,
      "componentType": 5126,
      "count": 65532,
      "max": [
        9.2268848419189453,
        9.1865768432617188,
        -0.25849500298500061
      ],
      "min": [
        1.7813349962234497,
        -1.3195550441741943,
        -11.399957656860352
      ],
      "type": "VEC3"
    },
    {
      "bufferView": 2,
      "byteOffset": 7077456,
      "componentType": 5126,
      "count": 65532,
      "max": [
        0.99999833106994629,
        0.98854869604110718,
        0.99836212396621704
      ],
      "min": [
        -0.9999961256980896,
        -0.9999995231628418,
        -0.99999970197677612
      ],
      "type": "VEC3"
    },
    {
      "bufferView": 3,
      "byteOffset": 4194048,
      "componentType": 5126,
      "count": 65532,
      "max": [
        0.99953192472457886,
        0.99998855590820312,
        0.99999994039535522,
        1
      ],
      "min": [
        -0.99999982118606567,
        -0.99994015693664551,
        -0.99999892711639404,
        -1
      ],
      "type": "VEC4"
    },
    {
      "bufferView": 1,
      "byteOffset": 2097024,
      "componentType": 5126,
      "count": 65532,
      "max": [
        0.96706598997116089,
        0.96483898162841797
      ],
      "min": [
        0,
        0.0032259998843073845
      ],
      "type": "VEC2"
    },
    {
      "bufferView": 0,
      "byteOffset": 5194644,
      "componentType": 5125,
      "count": 340932,
      "max": [
        65531
      ],
      "min": [
        0
      ],
      "type": "SCALAR"
    },
    {
      "bufferView": 2,
      "byteOffset": 7863840,
      "componentType": 5126,
      "count": 38100,
      "max": [
        9.2414846420288086,
        9.1322555541992188,
        -0.31629100441932678
      ],
      "min": [
        2.6921279430389404,
        -1.3138569593429565,
        -11.29289436340332
      ],
      "type": "VEC3"
    },
    {
      "bufferView": 2,
      "byteOffset": 8321040,
      "componentType": 5126,
      "count": 38100,
      "max": [
        0.99999481439590454,
        0.9994698166847229,
        0.98310750722885132
      ],
      "min": [
        -0.99999839067459106,
        -0.99999845027923584,
        -0.99998366832733154
      ],
      "type": "VEC3"
    },
    {
      "bufferView": 3,
      "byteOffset": 5242560,
      "componentType": 5126,
      "count": 38100,
      "max": [
        0.99999278783798218,
        0.99996346235275269,
        0.99978023767471313,
        1
      ],
      "min": [
        -0.99999719858169556,
        -0.99999642372131348,
        -0.99999475479125977,
        -1
      ],
      "type": "VEC4"
    },
    {
      "bufferView": 1,
      "byteOffset": 2621280,
      "componentType": 5126,
      "count": 38100,
      "max": [
        0.97714000940322876,
        0.96459102630615234
      ],
      "min": [
        0.00203699991106987,
        0.0012700000079348683
      ],
      "type": "VEC2"
    },
    {
      "bufferView": 0,
      "byteOffset": 6558372,
      "componentType": 5125,
      "count": 182187,
      "max": [
        38099
      ],
      "min": [
        0
      ],
      "type": "SCALAR"
    }
  ],
  "asset": {
    "extras": {
      "author": "danderson4 (https://sketchfab.com/danderson4)",
      "license": "CC-BY-NC-4.0 (http://creativecommons.org/licenses/by-nc/4.0/)",
      "source": "https://sketchfab.com/3d-models/sphinx-of-hatshepsut-bf46a8a24521494ea6dadb9b91d10cf3",
      "title": "Sphinx of Hatshepsut"
    },
    "generator": "Sketchfab-4.61.0",
    "version": "2.0"
  },
  "bufferViews": [
    {
      "buffer": 0,
      "byteLength": 7287120,
      "byteOffset": 0,
      "name": "floatBufferViews",
      "target": 34963
    },
    {
      "buffer": 0,
      "byteLength": 2926080,
      "byteOffset": 7287120,
      "byteStride": 8,
      "name": "floatBufferViews",
      "target": 34962
    },
    {
      "buffer": 0,
      "byteLength": 8778240,
      "byteOffset": 10213200,
      "byteStride": 12,
      "name": "floatBufferViews",
      "target": 34962
    },
    {
      "buffer": 0,
      "byteLength": 5852160,
      "byteOffset": 18991440,
      "byteStride": 16,
      "name": "floatBufferViews",
      "target": 34962
    }
  ],
  "buffers": [
    {
      "byteLength": 24843600,
      "uri": "scene.bin"
    }
  ],
  "images": [
    {
      "uri": "/HatshepsutSphinx_baseColor.jpeg"
    }
  ],
  "materials": [
    {
      "doubleSided": true,
      "emissiveFactor": [
        0,
        0,
        0
      ],
      "name": "HatshepsutSphinx",
      "pbrMetallicRoughness": {
        "baseColorFactor": [
          1,
          1,
          1,
          1
        ],
        "baseColorTexture": {
          "index": 0,
          "texCoord": 0
        },
        "metallicFactor": 0,
        "roughnessFactor": 0.59999999999999998
      }
    }
  ],
  "meshes": [
    {
      "primitives": [
        {
          "attributes": {
            "NORMAL": 1,
            "POSITION": 0,
            "TANGENT": 2,
            "TEXCOORD_0": 3
          },
          "indices": 4,
          "material": 0,
          "mode": 4
        }
      ]
    },
    {
      "primitives": [
        {
          "attributes": {
            "NORMAL": 6,
            "POSITION": 5,
            "TANGENT": 7,
            "TEXCOORD_0": 8
          },
          "indices": 9,
          "material": 0,
          "mode": 4
        }
      ]
    },
    {
      "primitives": [
        {
          "attributes": {
            "NORMAL": 11,
            "POSITION": 10,
            "TANGENT": 12,
            "TEXCOORD_0": 13
          },
          "indices": 14,
          "material": 0,
          "mode": 4
        }
      ]
    },
    {
      "primitives": [
        {
          "attributes": {
            "NORMAL": 16,
            "POSITION": 15,
            "TANGENT": 17,
            "TEXCOORD_0": 18
          },
          "indices": 19,
          "material": 0,
          "mode": 4
        }
      ]
    },
    {
      "primitives": [
        {
          "attributes": {
            "NORMAL": 21,
            "POSITION": 20,
            "TANGENT": 22,
            "TEXCOORD_0": 23
          },
          "indices": 24,
          "material": 0,
          "mode": 4
        }
      ]
    },
    {
      "primitives": [
        {
          "attributes": {
            "NORMAL": 26,
            "POSITION": 25,
            "TANGENT": 27,
            "TEXCOORD_0": 28
          },
          "indices": 29,
          "material": 0,
          "mode": 4
        }
      ]
    }
  ],
  "nodes": [
    {
      "children": [
        1
      ],
      "name": "RootNode (gltf orientation matrix)",
      "rotation": [
        -0.70710678118654746,
        -0,
        -0,
        0.70710678118654757
      ]
    },
    {
      "children": [
        2
      ],
      "matrix": [
        1,
        0,
        0,
        0,
        0,
        0,
        -1,
        0,
        0,
        1,
        0,
        0,
        0,
        4.2021865844726562,
        3.6648283004760742,
        1
      ],
      "name": "RootNode (model correction matrix)"
    },
    {
      "children": [
        3,
        4,
        5,
        6,
        7,
        8
      ],
      "name": "HatshepsutSphinx.obj.cleaner.materialmerger.gles"
    },
    {
      "mesh": 0,
      "name": ""
    },
    {
      "mesh": 1,
      "name": ""
    },
    {
      "mesh": 2,
      "name": ""
    },
    {
      "mesh": 3,
      "name": ""
    },
    {
      "mesh": 4,
      "name": ""
    },
    {
      "mesh": 5,
      "name": ""
    }
  ],
  "samplers": [
    {
      "magFilter": 9729,
      "minFilter": 9987,
      "wrapS": 10497,
      "wrapT": 10497
    }
  ],
  "scene": 0,
  "scenes": [
    {
      "name": "OSG_Scene",
      "nodes": [
        0
      ]
    }
  ],
  "textures": [
    {
      "sampler": 0,
      "source": 0
    }
  ]
}

